<svg viewBox="0 0 240 240" xmlns="http://www.w3.org/2000/svg" role="img" aria-label="kinbot mascot">
  <defs>
    <linearGradient id="kbHead" x1="0" y1="0" x2="0" y2="1">
      <stop offset="0" stop-color="#3fae8f"/>
      <stop offset="1" stop-color="#0f6e62"/>
    </linearGradient>
    <linearGradient id="kbVisor" x1="0" y1="0" x2="0" y2="1">
      <stop offset="0" stop-color="#0b3a35"/>
      <stop offset="1" stop-color="#06231f"/>
    </linearGradient>
    <radialGradient id="kbEye" cx="0.5" cy="0.4" r="0.7">
      <stop offset="0" stop-color="#aeffe6"/>
      <stop offset="1" stop-color="#39e0b4"/>
    </radialGradient>
    <linearGradient id="kbGlow" x1="0" y1="0" x2="0" y2="1">
      <stop offset="0" stop-color="#7bffd6"/>
      <stop offset="1" stop-color="#39e0b4"/>
    </linearGradient>
    <linearGradient id="kbHair" x1="0" y1="0" x2="0" y2="1">
      <stop offset="0" stop-color="#1c5249"/>
      <stop offset="1" stop-color="#0c302a"/>
    </linearGradient>
  </defs>

  <!-- antenna (pokes through the curls) -->
  <line x1="120" y1="40" x2="120" y2="18" stroke="#0f6e62" stroke-width="6" stroke-linecap="round"/>
  <circle cx="120" cy="13" r="9" fill="url(#kbGlow)">
    <animate attributeName="opacity" values="1;0.45;1" dur="2.4s" repeatCount="indefinite"/>
  </circle>

  <!-- headphone band (behind hair) -->
  <path d="M44 122 A78 78 0 0 1 196 122" fill="none" stroke="#0f6e62" stroke-width="12" stroke-linecap="round"/>

  <!-- 天然パーマ：curly hair (cluster of bumps) -->
  <g fill="url(#kbHair)">
    <circle cx="66" cy="64" r="18"/>
    <circle cx="84" cy="50" r="19"/>
    <circle cx="104" cy="42" r="20"/>
    <circle cx="124" cy="39" r="21"/>
    <circle cx="144" cy="43" r="20"/>
    <circle cx="163" cy="52" r="18"/>
    <circle cx="178" cy="66" r="16"/>
    <circle cx="95" cy="62" r="15"/>
    <circle cx="118" cy="58" r="15"/>
    <circle cx="140" cy="60" r="15"/>
  </g>
  <!-- curl highlights -->
  <g fill="#2e7d6e" opacity="0.7">
    <circle cx="90" cy="46" r="6"/>
    <circle cx="112" cy="39" r="6"/>
    <circle cx="134" cy="40" r="6"/>
    <circle cx="156" cy="49" r="5"/>
    <circle cx="72" cy="60" r="5"/>
  </g>

  <!-- head -->
  <rect x="52" y="52" width="136" height="114" rx="34" fill="url(#kbHead)"/>

  <!-- visor -->
  <rect x="70" y="80" width="100" height="58" rx="24" fill="url(#kbVisor)"/>

  <!-- 太い眉毛：thick eyebrows -->
  <path d="M84 92 Q100 84 115 90" fill="none" stroke="#7bffd6" stroke-width="9" stroke-linecap="round"/>
  <path d="M125 90 Q140 84 156 92" fill="none" stroke="#7bffd6" stroke-width="9" stroke-linecap="round"/>

  <!-- eyes -->
  <circle cx="100" cy="112" r="12" fill="url(#kbEye)">
    <animate attributeName="r" values="12;12;2.5;12;12" dur="5s" keyTimes="0;0.92;0.95;0.98;1" repeatCount="indefinite"/>
  </circle>
  <circle cx="140" cy="112" r="12" fill="url(#kbEye)">
    <animate attributeName="r" values="12;12;2.5;12;12" dur="5s" keyTimes="0;0.92;0.95;0.98;1" repeatCount="indefinite"/>
  </circle>

  <!-- smile -->
  <path d="M104 128 Q120 138 136 128" fill="none" stroke="#39e0b4" stroke-width="4" stroke-linecap="round"/>

  <!-- ear cups (headphones) -->
  <rect x="34" y="104" width="26" height="44" rx="11" fill="#0f6e62"/>
  <rect x="180" y="104" width="26" height="44" rx="11" fill="#0f6e62"/>
  <rect x="40" y="112" width="14" height="28" rx="7" fill="#39e0b4" opacity="0.7"/>
  <rect x="186" y="112" width="14" height="28" rx="7" fill="#39e0b4" opacity="0.7"/>

  <!-- body hint / collar -->
  <path d="M84 166 Q120 184 156 166 L156 178 Q120 196 84 178 Z" fill="#0b524a"/>
</svg>
